<svg xmlns="http://www.w3.org/2000/svg" version="1.1" xmlns:xlink="http://www.w3.org/1999/xlink" xmlns:svgjs="http://svgjs.dev/svgjs" width="1000" height="1000" viewBox="0 0 1000 1000"><g transform="matrix(1,0,0,1,-0.14221556886212738,-0.14221556886229791)"><svg viewBox="0 0 334 334" data-background-color="#282634" preserveAspectRatio="xMidYMid meet" height="1000" width="1000" xmlns="http://www.w3.org/2000/svg" xmlns:xlink="http://www.w3.org/1999/xlink"><g id="tight-bounds" transform="matrix(1,0,0,1,0.04749999999998522,0.04750000000001364)"><svg viewBox="0 0 333.90454557049503 333.90454557049503" height="333.90454557049503" width="333.90454557049503"><g><svg></svg></g><g><svg viewBox="0 0 333.90454557049503 333.90454557049503" height="333.90454557049503" width="333.90454557049503"><g><path d="M0 166.952c0-92.205 74.747-166.952 166.952-166.952 92.205 0 166.952 74.747 166.953 166.952 0 92.205-74.747 166.952-166.953 166.953-92.205 0-166.952-74.747-166.952-166.953zM166.952 316.63c82.665 0 149.677-67.013 149.678-149.678 0-82.665-67.013-149.677-149.678-149.677-82.665 0-149.677 67.013-149.677 149.677 0 82.665 67.013 149.677 149.677 149.678z" data-fill-palette-color="tertiary" fill="#ff4057" stroke="transparent"></path><ellipse rx="160.27418187383762" ry="160.27418187383762" cx="166.95227278524752" cy="166.95227278524752" fill="#ff4057" stroke="transparent" stroke-width="0" fill-opacity="1" data-fill-palette-color="tertiary"></ellipse></g><g transform="matrix(1,0,0,1,63.86785737910789,71.17305217166896)"><svg viewBox="0 0 206.16883081227925 191.55844122715712" height="191.55844122715712" width="206.16883081227925"><g><svg viewBox="0 0 206.16883081227925 191.55844122715712" height="191.55844122715712" width="206.16883081227925"><g><svg viewBox="0 0 206.16883081227928 191.55844122715715" height="191.55844122715712" width="206.16883081227925"><g><svg viewBox="0 0 206.16883081227928 191.55844122715715" height="191.55844122715715" width="206.16883081227928"><g id="textblocktransform"><svg viewBox="0 0 206.16883081227928 191.55844122715715" height="191.55844122715715" width="206.16883081227928" id="textblock"><g><svg viewBox="0 0 206.16883081227928 191.55844122715715" height="191.55844122715715" width="206.16883081227928"><g transform="matrix(1,0,0,1,0,0)"><svg width="206.16883081227928" viewBox="0.25 -34.45000076293945 44.45000076293945 41.29999923706055" height="191.55844122715715" data-palette-color="#282634"><path d="M10.5-34.45L10.5-4.8Q10.5 0.3 8.28 2.85 6.05 5.4 1.5 6.85L1.5 6.85 0.25 3.4Q2.55 2.5 3.7 1.45 4.85 0.4 5.3-1.1 5.75-2.6 5.75-5L5.75-5 5.75-34.45 10.5-34.45ZM27.45-34.45Q35.25-34.45 39.97-30.83 44.7-27.2 44.7-17.4L44.7-17.4Q44.7-7.85 39.97-3.93 35.25 0 28.5 0L28.5 0 20.25 0 20.25-34.45 27.45-34.45ZM28.5-30.65L25-30.65 25-3.75 28.85-3.75Q33.65-3.75 36.65-6.7 39.65-9.65 39.65-17.4L39.65-17.4Q39.65-22.85 38.1-25.78 36.55-28.7 34.15-29.68 31.75-30.65 28.5-30.65L28.5-30.65Z" opacity="1" transform="matrix(1,0,0,1,0,0)" fill="#282634" class="undefined-text-0" data-fill-palette-color="quaternary" id="text-0"></path></svg></g></svg></g></svg></g></svg></g><g></g></svg></g></svg></g></svg></g></svg></g><defs></defs></svg><rect width="333.90454557049503" height="333.90454557049503" fill="none" stroke="none" visibility="hidden"></rect></g></svg></g></svg>